<svg width="102" height="102" viewBox="0 0 102 102" fill="none" xmlns="http://www.w3.org/2000/svg">
<path d="M51.0009 100.265C51.4919 100.265 51.9299 100.069 52.2509 99.7481C52.5719 99.4271 52.7683 98.989 52.7683 98.4981L52.7683 52.7655L98.5009 52.7655C98.9919 52.7655 99.4299 52.5691 99.7509 52.2481C100.072 51.9271 100.268 51.489 100.268 50.9981C100.268 50.0238 99.4753 49.2307 98.5009 49.2307L52.7683 49.2307L52.7683 3.49809C52.7683 2.52377 51.9753 1.73071 51.0009 1.73071C50.0266 1.73071 49.2336 2.52377 49.2336 3.49809L49.2336 49.2307L3.50094 49.2307C2.52662 49.2307 1.73357 50.0238 1.73357 50.9981C1.73357 51.9724 2.52662 52.7655 3.50094 52.7655L49.2336 52.7655L49.2336 98.4981C49.2336 99.48 50.0228 100.269 51.0009 100.265Z" fill="white" stroke="white" stroke-width="0.5"/>
</svg>
