<svg width="100" height="100" viewBox="0 0 100 100" fill="none" xmlns="http://www.w3.org/2000/svg">
<path d="M97.5506 43.1725L86.3373 40.1165C86.2081 40.0705 85.9653 39.8457 85.8723 39.6208L82.9062 32.5634C82.8545 32.4407 82.87 32.1188 82.9217 32.0114L88.735 22.0053C89.4274 20.8146 89.2776 19.1844 88.3785 18.1316C88.3164 18.0601 86.8747 16.3839 85.5984 15.1216C84.3272 13.8491 82.6219 12.4131 82.5599 12.3569C81.5471 11.4933 79.8005 11.3246 78.6379 11.9787L68.5201 17.6615C68.4684 17.6819 68.117 17.7484 67.8535 17.6308L60.7121 14.6872C60.5829 14.6361 60.3555 14.3908 60.3194 14.2835L57.2757 2.81071C56.9502 1.64554 55.7565 0 54.1133 0H46.1348C44.4864 0 43.2875 1.63021 42.962 2.79027L39.8718 14.0433C39.8253 14.1915 39.5876 14.4828 39.3603 14.585L32.2086 17.5491C32.1621 17.5695 31.6711 17.5593 31.6453 17.5491L21.543 11.8254C20.3855 11.1662 18.6492 11.3246 17.6261 12.1729C17.5537 12.2343 15.8588 13.6549 14.598 14.9223C13.2854 16.1948 11.8386 17.8812 11.7662 17.963C10.8929 19.0055 10.7379 20.6255 11.4148 21.8213L17.1662 31.8224C17.2282 31.9399 17.2385 32.267 17.1455 32.4867L14.1432 39.5646C14.0916 39.6821 13.8642 39.8968 13.7298 39.9428L2.5217 42.9528C1.16784 43.3003 0.0930138 44.6085 0.0155024 46.0854L0 54.0372C0.0620091 55.417 1.12133 56.7304 2.46486 57.0983L13.673 60.1594C13.797 60.2054 14.0347 60.4252 14.1277 60.6551L17.1042 67.733C17.1558 67.8557 17.1455 68.1674 17.0887 68.2747L11.265 78.286C10.5777 79.4767 10.7276 81.1018 11.6267 82.1596C11.6887 82.2312 13.1253 83.8972 14.4223 85.2208C15.6935 86.4421 17.3677 87.8679 17.4297 87.919C18.4425 88.7929 20.1943 88.9565 21.3466 88.2972L31.4645 82.6247C31.5316 82.5889 31.8985 82.5276 32.1517 82.64L39.3086 85.5989C39.4326 85.65 39.6548 85.8851 39.6962 85.9924L42.7191 97.317C43.055 98.5895 44.3313 100 45.8816 100H53.8601C55.3948 100 56.6763 98.6049 57.0329 97.3477L60.1385 86.1509C60.185 86.0231 60.4072 85.7574 60.6501 85.6551L67.7914 82.7013C67.8431 82.6809 68.334 82.6911 68.3599 82.7013L78.4467 88.4454C79.6042 89.0996 81.3404 88.9462 82.3532 88.0979C82.4256 88.0366 84.1257 86.6261 85.4434 85.3281C86.6887 84.076 88.1408 82.4049 88.2131 82.3283C89.1071 81.2807 89.2621 79.6556 88.58 78.4648L82.8235 68.4536C82.7666 68.3309 82.7563 68.0039 82.8545 67.779L85.8361 60.7165C85.8878 60.5887 86.1306 60.369 86.2495 60.3281L97.499 57.3334C98.8322 56.9706 99.8966 55.6725 99.9845 54.211L100 46.2336C99.9587 44.8589 98.8993 43.5405 97.5506 43.1725ZM96.6308 54.1139L85.3762 57.1085C84.1722 57.4356 83.056 58.4781 82.6995 59.5309L79.8057 66.3839C79.2528 67.4673 79.2941 69.0208 79.8987 70.0838L85.6552 80.1615C85.6397 80.1768 84.2187 81.8121 83.0663 82.9722C81.8572 84.1578 80.2088 85.5274 80.1313 85.5478L70.0444 79.7986C69.4915 79.4869 68.7888 79.3132 68.0601 79.3132C67.6106 79.3132 66.944 79.3796 66.4066 79.6453L59.4977 82.4918C58.3299 82.8547 57.2344 83.9892 56.8933 85.1901L53.7929 96.4278C53.7774 96.4636 53.7361 96.6527 53.6947 96.6527H46.0573C46.0211 96.6527 45.9901 96.4738 45.9797 96.4534L42.9516 85.1646C42.6313 83.9994 41.5564 82.8444 40.5023 82.4969L33.5469 79.6096C32.4824 79.0883 30.896 79.119 29.8212 79.7067L19.631 85.3843C19.6155 85.369 17.962 83.9636 16.7993 82.8495C15.616 81.6435 14.2052 80.0031 14.1846 79.9315L20.0186 69.9305C20.6335 68.8675 20.6749 67.3089 20.1685 66.343L17.285 59.4951C16.9026 58.3453 15.7658 57.2721 14.5773 56.9501L3.36916 53.9657L3.38466 46.1774L14.5876 43.1725C15.7813 42.871 16.9337 41.8081 17.2902 40.7553L20.1995 33.8972C20.7524 32.824 20.7162 31.2755 20.1064 30.1973L14.3706 20.1809C14.3603 20.14 14.3654 20.002 14.3499 20.002C14.3499 20.002 14.3499 20.002 14.3448 20.002C14.3603 20.002 15.7555 18.4127 16.975 17.2271C18.1428 16.0517 19.7757 14.7128 19.8636 14.6924L29.9607 20.4415C30.5033 20.7482 31.2009 20.927 31.9243 20.927C32.3791 20.927 33.0508 20.8606 33.5986 20.5897L40.5126 17.7228C41.7993 17.314 42.8121 15.9955 43.1067 14.9479L46.1968 3.68459C46.2226 3.59771 46.3208 3.34219 46.4035 3.34219H53.8032C53.8911 3.34219 53.9841 3.60793 54.0099 3.68459L57.0535 15.1472C57.3791 16.3175 58.4591 17.4571 59.5081 17.8046L66.4376 20.6664C67.0783 20.9832 67.7449 21.0497 68.1945 21.0497C68.9231 21.0497 69.6259 20.8759 70.1736 20.5693L80.3586 14.8917C80.3741 14.907 82.0277 16.297 83.1955 17.4724C84.384 18.6478 85.7844 20.278 85.8051 20.3495L79.9866 30.3608C79.3768 31.4186 79.3303 32.9722 79.8264 33.9432L82.7098 40.7911C83.0922 41.9307 84.229 42.9988 85.4175 43.3309L96.636 46.3103L96.6308 54.1139Z" fill="white"/>
<path d="M49.9984 32.9977C45.389 32.9977 41.0484 34.7659 37.7722 37.9803C34.4858 41.2101 32.6668 45.513 32.6617 50.097C32.6513 54.6759 34.4444 58.9942 37.7206 62.2546C41.0122 65.4997 45.3839 67.2832 50.0242 67.2832C54.6387 67.2832 58.9794 65.5151 62.2452 62.3006C65.5265 59.0657 67.3351 54.7577 67.3454 50.1788C67.3558 45.5948 65.5575 41.2867 62.2917 38.057C59.0104 34.7914 54.6439 32.9977 49.9984 32.9977ZM59.8682 59.9345C57.2379 62.5204 53.7396 63.9462 50.0242 63.9462C46.2778 63.9462 42.7536 62.505 40.1028 59.8936C37.4674 57.2669 36.0205 53.7918 36.0308 50.097C36.0412 46.4022 37.5035 42.9374 40.1493 40.3413C42.7898 37.7503 46.2882 36.3245 49.9984 36.3245C53.7396 36.3245 57.2586 37.7708 59.9043 40.4077C62.5397 43.014 63.9814 46.4789 63.9763 50.1686C63.9659 53.8634 62.5087 57.3282 59.8682 59.9345Z" fill="white"/>
</svg>
