<svg width="95" height="100" viewBox="0 0 95 100" fill="none" xmlns="http://www.w3.org/2000/svg">
<path d="M90.8807 4.27853C88.2367 1.53846 84.6568 0 80.9248 0C77.1928 0 73.6128 1.53846 70.9688 4.27853L12.4649 65.1426L10.9595 66.7087C10.8442 66.8394 10.7375 66.9781 10.6402 67.1239C10.5035 67.3215 10.3924 67.5369 10.3095 67.7646L0.182477 95.9898C0.0198945 96.4396 -0.0352247 96.9237 0.021861 97.4005C0.0789468 97.8773 0.246529 98.3326 0.51019 98.7271C0.77385 99.1216 1.12569 99.4436 1.53545 99.6653C1.94521 99.8871 2.40061 100.002 2.86248 100C3.25513 100 3.64351 99.9153 4.00291 99.7508L30.0161 88.0645C30.3451 87.9095 30.646 87.6968 30.9056 87.4357L32.3882 85.8814L90.8807 25.0174C93.5187 22.2642 95 18.5353 95 14.648C95 10.7606 93.5187 7.03171 90.8807 4.27853V4.27853ZM15.3502 70.7188C18.0343 71.7468 20.4733 73.3656 22.5007 75.4645C24.5298 77.5824 26.0871 80.1381 27.0624 82.9509L7.89177 91.5288L15.3502 70.7188ZM86.855 20.8886L31.4986 78.4781C29.0054 73.0842 24.8229 68.733 19.6382 66.1392L67.1712 16.653L75.3025 25.0886C75.8394 25.6297 76.5592 25.9298 77.3068 25.9241C78.0544 25.9185 78.7699 25.6076 79.2993 25.0584C79.8287 24.5093 80.1295 23.7657 80.1371 22.988C80.1446 22.2103 79.8582 21.4606 79.3396 20.9005L71.1969 12.4412L75.0288 8.4785C76.6016 6.84226 78.7347 5.92303 80.959 5.92303C83.1833 5.92303 85.3164 6.84226 86.8892 8.4785C88.462 10.1147 89.3456 12.334 89.3456 14.648C89.3456 16.962 88.462 19.1812 86.8892 20.8174L86.855 20.8886Z" fill="white"/>
</svg>
