<svg width="86" height="100" viewBox="0 0 86 100" fill="none" xmlns="http://www.w3.org/2000/svg">
<path d="M50.1014 0H35.6129C28.9771 0 23.5714 5.25554 23.5714 11.7069V12.5H8.57143H2.14286C0.958134 12.5 0 13.4315 0 14.5833C0 15.7351 0.958134 16.6667 2.14286 16.6667H6.53215L10.1057 86.1468C10.5006 93.9136 17.0846 100 25.0863 100H60.628C68.6297 100 75.2072 93.9136 75.6085 86.1468L79.1821 16.6667H83.5714C84.7561 16.6667 85.7143 15.7351 85.7143 14.5833C85.7143 13.4315 84.7561 12.5 83.5714 12.5H77.1428H62.1429V11.7069C62.1429 5.24924 56.7436 0 50.1014 0ZM27.8571 11.7069C27.8571 7.54657 31.3336 4.16666 35.6129 4.16666H50.1014C54.3807 4.16666 57.8571 7.54657 57.8571 11.7069V12.5H27.8571V11.7069ZM71.3293 85.9328C71.038 91.4841 66.3379 95.8333 60.628 95.8333H25.0863C19.3699 95.8333 14.6698 91.4841 14.385 85.9328L10.8243 16.6667H25.7143H60H74.8899L71.3293 85.9328Z" fill="white"/>
<path d="M42.8533 29.1666C41.6686 29.1666 40.7104 30.0981 40.7104 31.2499V81.2499C40.7104 82.4017 41.6686 83.3332 42.8533 83.3332C44.038 83.3332 44.9962 82.4017 44.9962 81.2499V31.2499C44.9962 30.0981 44.038 29.1666 42.8533 29.1666Z" fill="white"/>
<path d="M25.7098 29.1666C24.525 29.1666 23.5669 30.0981 23.5669 31.2499V81.2499C23.5669 82.4017 24.525 83.3332 25.7098 83.3332C26.8945 83.3332 27.8526 82.4017 27.8526 81.2499V31.2499C27.8526 30.0981 26.8945 29.1666 25.7098 29.1666Z" fill="white"/>
<path d="M57.8564 31.2499V81.2499C57.8564 82.4017 58.8146 83.3332 59.9993 83.3332C61.184 83.3332 62.1422 82.4017 62.1422 81.2499V31.2499C62.1422 30.0981 61.184 29.1666 59.9993 29.1666C58.8146 29.1666 57.8564 30.0981 57.8564 31.2499Z" fill="white"/>
</svg>
